<mxfile modified="2020-12-15T09:19:08.824Z" host="6c22cdbf-eb98-47bb-9ebe-80a01c0df962" agent="5.0 (Macintosh; Intel Mac OS X 11_0_0) AppleWebKit/537.36 (KHTML, like Gecko) Code/1.52.0 Chrome/83.0.4103.122 Electron/9.3.5 Safari/537.36" etag="WwbLwxGGuzA0Yc-jxSyH" version="13.10.0" type="embed">
    <diagram id="2QqPa0XOD5x1kuc35Nka" name="Page-1">
        <mxGraphModel dx="962" dy="497" grid="1" gridSize="10" guides="1" tooltips="1" connect="1" arrows="1" fold="1" page="1" pageScale="1" pageWidth="1500" pageHeight="1500" math="0" shadow="0">
            <root>
                <mxCell id="0"/>
                <mxCell id="1" parent="0"/>
                <mxCell id="4T_7Te7UtW3VEey7JxpD-24" value="grpc" style="edgeStyle=orthogonalEdgeStyle;curved=1;rounded=0;orthogonalLoop=1;jettySize=auto;html=1;exitX=0.5;exitY=1;exitDx=0;exitDy=0;entryX=0.75;entryY=0;entryDx=0;entryDy=0;startArrow=classic;startFill=1;" parent="1" source="4T_7Te7UtW3VEey7JxpD-2" target="4T_7Te7UtW3VEey7JxpD-4" edge="1">
                    <mxGeometry relative="1" as="geometry"/>
                </mxCell>
                <mxCell id="4T_7Te7UtW3VEey7JxpD-2" value="management-dashboard&lt;br&gt;(ui)" style="rounded=1;whiteSpace=wrap;html=1;fillColor=#dae8fc;strokeColor=#6c8ebf;" parent="1" vertex="1">
                    <mxGeometry x="769.5" y="110" width="160" height="60" as="geometry"/>
                </mxCell>
                <mxCell id="4T_7Te7UtW3VEey7JxpD-3" value="config-api" style="rounded=1;whiteSpace=wrap;html=1;fillColor=#dae8fc;strokeColor=#6c8ebf;" parent="1" vertex="1">
                    <mxGeometry x="664.5" y="470" width="190" height="60" as="geometry"/>
                </mxCell>
                <mxCell id="4T_7Te7UtW3VEey7JxpD-6" value="&lt;span style=&quot;font-size: 12px&quot;&gt;postgres&lt;/span&gt;" style="edgeStyle=orthogonalEdgeStyle;rounded=0;orthogonalLoop=1;jettySize=auto;html=1;" parent="1" source="4T_7Te7UtW3VEey7JxpD-4" target="4T_7Te7UtW3VEey7JxpD-5" edge="1">
                    <mxGeometry relative="1" as="geometry"/>
                </mxCell>
                <mxCell id="4T_7Te7UtW3VEey7JxpD-4" value="management-api" style="rounded=1;whiteSpace=wrap;html=1;fillColor=#dae8fc;strokeColor=#6c8ebf;" parent="1" vertex="1">
                    <mxGeometry x="664.5" y="230" width="190" height="60" as="geometry"/>
                </mxCell>
                <mxCell id="4T_7Te7UtW3VEey7JxpD-7" value="&lt;span style=&quot;font-size: 12px&quot;&gt;postgres&lt;/span&gt;" style="edgeStyle=orthogonalEdgeStyle;rounded=0;orthogonalLoop=1;jettySize=auto;html=1;startArrow=classic;startFill=1;" parent="1" source="4T_7Te7UtW3VEey7JxpD-5" target="4T_7Te7UtW3VEey7JxpD-3" edge="1">
                    <mxGeometry relative="1" as="geometry"/>
                </mxCell>
                <mxCell id="4T_7Te7UtW3VEey7JxpD-5" value="postgres&lt;br&gt;(config)" style="ellipse;whiteSpace=wrap;html=1;aspect=fixed;rounded=1;fillColor=#fff2cc;strokeColor=#d6b656;" parent="1" vertex="1">
                    <mxGeometry x="719.5" y="340" width="80" height="80" as="geometry"/>
                </mxCell>
                <mxCell id="4T_7Te7UtW3VEey7JxpD-17" value="grpc: watch config" style="edgeStyle=orthogonalEdgeStyle;curved=1;rounded=0;orthogonalLoop=1;jettySize=auto;html=1;exitX=1;exitY=0.25;exitDx=0;exitDy=0;entryX=0;entryY=0.75;entryDx=0;entryDy=0;startArrow=none;startFill=0;" parent="1" source="4T_7Te7UtW3VEey7JxpD-9" target="4T_7Te7UtW3VEey7JxpD-3" edge="1">
                    <mxGeometry x="-0.5862" y="25" relative="1" as="geometry">
                        <mxPoint x="25" y="-25" as="offset"/>
                    </mxGeometry>
                </mxCell>
                <mxCell id="4T_7Te7UtW3VEey7JxpD-47" value="pgsql: write logs" style="edgeStyle=orthogonalEdgeStyle;curved=1;rounded=0;orthogonalLoop=1;jettySize=auto;html=1;exitX=1;exitY=0.75;exitDx=0;exitDy=0;entryX=0.5;entryY=0;entryDx=0;entryDy=0;startArrow=none;startFill=0;endArrow=classic;endFill=1;" parent="1" source="4T_7Te7UtW3VEey7JxpD-9" target="4T_7Te7UtW3VEey7JxpD-26" edge="1">
                    <mxGeometry x="-0.6101" relative="1" as="geometry">
                        <mxPoint as="offset"/>
                    </mxGeometry>
                </mxCell>
                <mxCell id="PaYBZk05CdK94g3n1y_z-16" value="http: API call" style="edgeStyle=orthogonalEdgeStyle;curved=1;rounded=0;orthogonalLoop=1;jettySize=auto;html=1;startArrow=none;startFill=0;endArrow=classic;endFill=1;" parent="1" source="4T_7Te7UtW3VEey7JxpD-9" target="PaYBZk05CdK94g3n1y_z-15" edge="1">
                    <mxGeometry x="-0.3333" relative="1" as="geometry">
                        <mxPoint as="offset"/>
                    </mxGeometry>
                </mxCell>
                <mxCell id="4T_7Te7UtW3VEey7JxpD-9" value="inway" style="rounded=1;whiteSpace=wrap;html=1;fillColor=#dae8fc;strokeColor=#6c8ebf;" parent="1" vertex="1">
                    <mxGeometry x="459.5" y="620" width="120" height="60" as="geometry"/>
                </mxCell>
                <mxCell id="4T_7Te7UtW3VEey7JxpD-18" value="grpc: watch config" style="edgeStyle=orthogonalEdgeStyle;curved=1;rounded=0;orthogonalLoop=1;jettySize=auto;html=1;exitX=0;exitY=0.25;exitDx=0;exitDy=0;entryX=1;entryY=0.75;entryDx=0;entryDy=0;startArrow=none;startFill=0;" parent="1" source="4T_7Te7UtW3VEey7JxpD-13" target="4T_7Te7UtW3VEey7JxpD-3" edge="1">
                    <mxGeometry x="-0.5886" y="-25" relative="1" as="geometry">
                        <mxPoint x="-25" y="-25" as="offset"/>
                    </mxGeometry>
                </mxCell>
                <mxCell id="4T_7Te7UtW3VEey7JxpD-33" value="nhp" style="edgeStyle=orthogonalEdgeStyle;curved=1;rounded=0;orthogonalLoop=1;jettySize=auto;html=1;startArrow=none;startFill=0;" parent="1" source="4T_7Te7UtW3VEey7JxpD-13" target="4T_7Te7UtW3VEey7JxpD-32" edge="1">
                    <mxGeometry relative="1" as="geometry"/>
                </mxCell>
                <mxCell id="4T_7Te7UtW3VEey7JxpD-48" value="pgsql: write logs" style="edgeStyle=orthogonalEdgeStyle;curved=1;rounded=0;orthogonalLoop=1;jettySize=auto;html=1;exitX=0;exitY=0.75;exitDx=0;exitDy=0;startArrow=none;startFill=0;endArrow=classic;endFill=1;" parent="1" source="4T_7Te7UtW3VEey7JxpD-13" target="4T_7Te7UtW3VEey7JxpD-26" edge="1">
                    <mxGeometry x="-0.612" relative="1" as="geometry">
                        <mxPoint as="offset"/>
                    </mxGeometry>
                </mxCell>
                <mxCell id="PaYBZk05CdK94g3n1y_z-7" value="http: validate auth" style="edgeStyle=orthogonalEdgeStyle;curved=1;rounded=0;orthogonalLoop=1;jettySize=auto;html=1;exitX=0.5;exitY=1;exitDx=0;exitDy=0;entryX=0.5;entryY=0;entryDx=0;entryDy=0;startArrow=none;startFill=0;endArrow=classic;endFill=1;" parent="1" source="4T_7Te7UtW3VEey7JxpD-13" target="PaYBZk05CdK94g3n1y_z-1" edge="1">
                    <mxGeometry x="0.0912" y="9" relative="1" as="geometry">
                        <mxPoint as="offset"/>
                    </mxGeometry>
                </mxCell>
                <mxCell id="4T_7Te7UtW3VEey7JxpD-13" value="outway" style="rounded=1;whiteSpace=wrap;html=1;fillColor=#dae8fc;strokeColor=#6c8ebf;" parent="1" vertex="1">
                    <mxGeometry x="939.5" y="620" width="120" height="60" as="geometry"/>
                </mxCell>
                <mxCell id="4T_7Te7UtW3VEey7JxpD-20" value="" style="edgeStyle=orthogonalEdgeStyle;curved=1;rounded=0;orthogonalLoop=1;jettySize=auto;html=1;startArrow=none;startFill=0;" parent="1" source="4T_7Te7UtW3VEey7JxpD-19" target="4T_7Te7UtW3VEey7JxpD-5" edge="1">
                    <mxGeometry relative="1" as="geometry"/>
                </mxCell>
                <mxCell id="4T_7Te7UtW3VEey7JxpD-21" value="&lt;span style=&quot;font-size: 12px&quot;&gt;postgres&lt;/span&gt;" style="edgeStyle=orthogonalEdgeStyle;curved=1;rounded=0;orthogonalLoop=1;jettySize=auto;html=1;startArrow=classic;startFill=1;" parent="1" source="4T_7Te7UtW3VEey7JxpD-19" target="4T_7Te7UtW3VEey7JxpD-5" edge="1">
                    <mxGeometry relative="1" as="geometry"/>
                </mxCell>
                <mxCell id="4T_7Te7UtW3VEey7JxpD-19" value="management-worker" style="rounded=1;whiteSpace=wrap;html=1;fillColor=#dae8fc;strokeColor=#6c8ebf;" parent="1" vertex="1">
                    <mxGeometry x="869.5" y="350" width="130" height="60" as="geometry"/>
                </mxCell>
                <mxCell id="4T_7Te7UtW3VEey7JxpD-25" value="grpc" style="edgeStyle=orthogonalEdgeStyle;curved=1;rounded=0;orthogonalLoop=1;jettySize=auto;html=1;exitX=0.5;exitY=1;exitDx=0;exitDy=0;entryX=0.25;entryY=0;entryDx=0;entryDy=0;startArrow=classic;startFill=1;" parent="1" source="4T_7Te7UtW3VEey7JxpD-22" target="4T_7Te7UtW3VEey7JxpD-4" edge="1">
                    <mxGeometry relative="1" as="geometry"/>
                </mxCell>
                <mxCell id="4T_7Te7UtW3VEey7JxpD-22" value="management-cli&lt;br&gt;" style="rounded=1;whiteSpace=wrap;html=1;fillColor=#dae8fc;strokeColor=#6c8ebf;" parent="1" vertex="1">
                    <mxGeometry x="592" y="110" width="135" height="60" as="geometry"/>
                </mxCell>
                <mxCell id="4T_7Te7UtW3VEey7JxpD-26" value="postgres&lt;br&gt;(txlog)&lt;br&gt;" style="ellipse;whiteSpace=wrap;html=1;aspect=fixed;rounded=1;fillColor=#fff2cc;strokeColor=#d6b656;" parent="1" vertex="1">
                    <mxGeometry x="719.5" y="845" width="80" height="80" as="geometry"/>
                </mxCell>
                <mxCell id="4T_7Te7UtW3VEey7JxpD-32" value="inway&lt;br&gt;(oranization Y)&lt;br&gt;" style="rounded=1;whiteSpace=wrap;html=1;fillColor=#f5f5f5;strokeColor=#666666;fontColor=#333333;" parent="1" vertex="1">
                    <mxGeometry x="1119.5" y="620" width="120" height="60" as="geometry"/>
                </mxCell>
                <mxCell id="4T_7Te7UtW3VEey7JxpD-35" value="nhp" style="edgeStyle=orthogonalEdgeStyle;curved=1;rounded=0;orthogonalLoop=1;jettySize=auto;html=1;startArrow=none;startFill=0;" parent="1" source="4T_7Te7UtW3VEey7JxpD-34" target="4T_7Te7UtW3VEey7JxpD-9" edge="1">
                    <mxGeometry relative="1" as="geometry"/>
                </mxCell>
                <mxCell id="4T_7Te7UtW3VEey7JxpD-34" value="outway&lt;br&gt;(oranization X)&lt;br&gt;" style="rounded=1;whiteSpace=wrap;html=1;fillColor=#f5f5f5;strokeColor=#666666;fontColor=#333333;" parent="1" vertex="1">
                    <mxGeometry x="279.69232177734375" y="620" width="120" height="60" as="geometry"/>
                </mxCell>
                <mxCell id="4T_7Te7UtW3VEey7JxpD-38" value="pgsql: read logs" style="edgeStyle=orthogonalEdgeStyle;curved=1;rounded=0;orthogonalLoop=1;jettySize=auto;html=1;startArrow=none;startFill=0;" parent="1" source="4T_7Te7UtW3VEey7JxpD-36" target="4T_7Te7UtW3VEey7JxpD-26" edge="1">
                    <mxGeometry relative="1" as="geometry">
                        <Array as="points">
                            <mxPoint x="829.5" y="885"/>
                            <mxPoint x="829.5" y="885"/>
                        </Array>
                    </mxGeometry>
                </mxCell>
                <mxCell id="4T_7Te7UtW3VEey7JxpD-55" value="grpc: watch config" style="edgeStyle=orthogonalEdgeStyle;curved=1;rounded=0;orthogonalLoop=1;jettySize=auto;html=1;exitX=0;exitY=0.25;exitDx=0;exitDy=0;entryX=0.5;entryY=1;entryDx=0;entryDy=0;startArrow=none;startFill=0;endArrow=classic;endFill=1;" parent="1" source="4T_7Te7UtW3VEey7JxpD-36" target="4T_7Te7UtW3VEey7JxpD-3" edge="1">
                    <mxGeometry x="-0.7817" y="-20" relative="1" as="geometry">
                        <mxPoint as="offset"/>
                    </mxGeometry>
                </mxCell>
                <mxCell id="4T_7Te7UtW3VEey7JxpD-36" value="insight-api" style="rounded=1;whiteSpace=wrap;html=1;fillColor=#dae8fc;strokeColor=#6c8ebf;" parent="1" vertex="1">
                    <mxGeometry x="914.5" y="855" width="120" height="60" as="geometry"/>
                </mxCell>
                <mxCell id="4T_7Te7UtW3VEey7JxpD-40" value="http: get txlogs&lt;br&gt;(option for grpc)&lt;br&gt;" style="edgeStyle=orthogonalEdgeStyle;curved=1;rounded=0;orthogonalLoop=1;jettySize=auto;html=1;startArrow=none;startFill=0;" parent="1" source="4T_7Te7UtW3VEey7JxpD-39" target="4T_7Te7UtW3VEey7JxpD-36" edge="1">
                    <mxGeometry relative="1" as="geometry"/>
                </mxCell>
                <mxCell id="4T_7Te7UtW3VEey7JxpD-46" value="http: create IRMA session" style="edgeStyle=orthogonalEdgeStyle;curved=1;rounded=0;orthogonalLoop=1;jettySize=auto;html=1;exitX=1;exitY=0.5;exitDx=0;exitDy=0;entryX=0.5;entryY=1;entryDx=0;entryDy=0;startArrow=none;startFill=0;endArrow=classic;endFill=1;" parent="1" source="4T_7Te7UtW3VEey7JxpD-39" target="4T_7Te7UtW3VEey7JxpD-41" edge="1">
                    <mxGeometry x="-0.2549" y="10" relative="1" as="geometry">
                        <mxPoint as="offset"/>
                    </mxGeometry>
                </mxCell>
                <mxCell id="4T_7Te7UtW3VEey7JxpD-39" value="insight-ui&lt;br&gt;(centrally hosted) (browser-application)&lt;br&gt;" style="rounded=1;whiteSpace=wrap;html=1;fillColor=#f5f5f5;strokeColor=#666666;fontColor=#333333;" parent="1" vertex="1">
                    <mxGeometry x="907" y="995" width="135" height="65" as="geometry"/>
                </mxCell>
                <mxCell id="4T_7Te7UtW3VEey7JxpD-42" value="pubkey" style="edgeStyle=orthogonalEdgeStyle;curved=1;rounded=0;orthogonalLoop=1;jettySize=auto;html=1;startArrow=ERmany;startFill=0;dashed=1;dashPattern=1 2;endArrow=diamondThin;endFill=1;" parent="1" source="4T_7Te7UtW3VEey7JxpD-41" target="4T_7Te7UtW3VEey7JxpD-36" edge="1">
                    <mxGeometry relative="1" as="geometry"/>
                </mxCell>
                <mxCell id="4T_7Te7UtW3VEey7JxpD-41" value="irma-server" style="rounded=1;whiteSpace=wrap;html=1;fillColor=#d5e8d4;strokeColor=#82b366;" parent="1" vertex="1">
                    <mxGeometry x="1119.5" y="855" width="120" height="60" as="geometry"/>
                </mxCell>
                <mxCell id="PaYBZk05CdK94g3n1y_z-1" value="auth-service&lt;br&gt;(nlx team provides a&lt;br&gt;reference implementation)&lt;br&gt;" style="rounded=1;whiteSpace=wrap;html=1;fillColor=#e1d5e7;strokeColor=#9673a6;dashed=1;" parent="1" vertex="1">
                    <mxGeometry x="974.5" y="737.5" width="150" height="60" as="geometry"/>
                </mxCell>
                <mxCell id="PaYBZk05CdK94g3n1y_z-8" value="NLX components inside the organization" style="text;html=1;strokeColor=#6c8ebf;fillColor=#dae8fc;align=center;verticalAlign=middle;whiteSpace=wrap;rounded=1;" parent="1" vertex="1">
                    <mxGeometry x="269.5" y="100" width="240" height="20" as="geometry"/>
                </mxCell>
                <mxCell id="PaYBZk05CdK94g3n1y_z-9" value="NLX components outside the organization" style="text;html=1;strokeColor=#666666;fillColor=#f5f5f5;align=center;verticalAlign=middle;whiteSpace=wrap;rounded=1;fontColor=#333333;" parent="1" vertex="1">
                    <mxGeometry x="269.5" y="160" width="240" height="20" as="geometry"/>
                </mxCell>
                <mxCell id="PaYBZk05CdK94g3n1y_z-10" value="Off-the-shelf O-S software inside the org" style="text;html=1;strokeColor=#d6b656;fillColor=#fff2cc;align=center;verticalAlign=middle;whiteSpace=wrap;rounded=1;" parent="1" vertex="1">
                    <mxGeometry x="269.5" y="130" width="240" height="20" as="geometry"/>
                </mxCell>
                <mxCell id="PaYBZk05CdK94g3n1y_z-11" value="Component by related community" style="text;html=1;strokeColor=#82b366;fillColor=#d5e8d4;align=center;verticalAlign=middle;whiteSpace=wrap;rounded=1;" parent="1" vertex="1">
                    <mxGeometry x="269.5" y="190" width="240" height="20" as="geometry"/>
                </mxCell>
                <mxCell id="PaYBZk05CdK94g3n1y_z-12" value="Software created/owned by organization" style="text;html=1;strokeColor=#9673a6;fillColor=#e1d5e7;align=center;verticalAlign=middle;whiteSpace=wrap;rounded=1;" parent="1" vertex="1">
                    <mxGeometry x="269.5" y="220" width="240" height="20" as="geometry"/>
                </mxCell>
                <mxCell id="PaYBZk05CdK94g3n1y_z-14" value="http: API call" style="edgeStyle=orthogonalEdgeStyle;curved=1;rounded=0;orthogonalLoop=1;jettySize=auto;html=1;startArrow=none;startFill=0;endArrow=classic;endFill=1;" parent="1" source="PaYBZk05CdK94g3n1y_z-13" target="4T_7Te7UtW3VEey7JxpD-13" edge="1">
                    <mxGeometry x="-0.3333" relative="1" as="geometry">
                        <mxPoint as="offset"/>
                    </mxGeometry>
                </mxCell>
                <mxCell id="PaYBZk05CdK94g3n1y_z-13" value="application" style="rounded=1;whiteSpace=wrap;html=1;fillColor=#e1d5e7;strokeColor=#9673a6;" parent="1" vertex="1">
                    <mxGeometry x="939.5" y="500" width="120" height="60" as="geometry"/>
                </mxCell>
                <mxCell id="PaYBZk05CdK94g3n1y_z-15" value="API service" style="rounded=1;whiteSpace=wrap;html=1;fillColor=#e1d5e7;strokeColor=#9673a6;" parent="1" vertex="1">
                    <mxGeometry x="459.5" y="500" width="120" height="60" as="geometry"/>
                </mxCell>
            </root>
        </mxGraphModel>
    </diagram>
</mxfile>
